PathFileType	4	(X/Y/Z)	Patient4_TMGait_0pt4_01_right_30.trc.trc
DataRate	CameraRate	NumFrames	NumMarkers	Units	OrigDataRate	OrigDataStartFrame	OrigNumFrames
74.074074074074	74.074074074074	5	33	mm	74.074074074074	36	       141
Frame#	Time	Sacral			L.Shoulder			Chest			R.Shoulder			Neck			R.ASIS			L.ASIS			R.Thigh.Superior			R.Thigh.Lateral			R.Thigh.Inferior			R.Patella			L.Thigh.Superior			L.Thigh.Lateral			L.Thigh.Inferior			L.Patella			L.Shank.Superior			L.Shank.Lateral			L.Shank.Inferior			R.Shank.Superior			R.Shank.Lateral			R.Shank.Inferior			R.Heel			R.Midfoot.Superior			R.Midfoot.Lateral			R.Toe			L.Heel			L.Midfoot.Lateral			L.Midfoot.Superior			L.Toe			L.Elbow			L.Wrist			R.Elbow			R.Wrist			
		X1	Y1	Z1	X2	Y2	Z2	X3	Y3	Z3	X4	Y4	Z4	X5	Y5	Z5	X6	Y6	Z6	X7	Y7	Z7	X8	Y8	Z8	X9	Y9	Z9	X10	Y10	Z10	X11	Y11	Z11	X12	Y12	Z12	X13	Y13	Z13	X14	Y14	Z14	X15	Y15	Z15	X16	Y16	Z16	X17	Y17	Z17	X18	Y18	Z18	X19	Y19	Z19	X20	Y20	Z20	X21	Y21	Z21	X22	Y22	Z22	X23	Y23	Z23	X24	Y24	Z24	X25	Y25	Z25	X26	Y26	Z26	X27	Y27	Z27	X28	Y28	Z28	X29	Y29	Z29	X30	Y30	Z30	X31	Y31	Z31	X32	Y32	Z32	X33	Y33	Z33	

36	39.232500000000	914.947338328505	990.251549934405	515.369295562838	1092.377933720175	1434.699205774036	357.214855663930	1179.398931382773	1366.439583061900	527.335271632183	1071.637297226995	1431.804688884155	691.818202363626	1063.960388088083	1491.679724791368	512.756923835908	1139.573604433291	943.533781238748	651.036973165021	1142.570676492750	961.274861086804	375.496216819995	1205.232059282939	749.554298686173	620.111674660073	1135.802844740830	632.564393238130	679.735354365822	1220.973529266306	588.739505498975	601.707255478931	1230.748451734970	499.899111429615	609.230763089516	1179.672539833289	736.913596350659	401.761909139325	1092.777709635038	623.488501234450	331.332622953007	1174.062769563245	538.859396506932	393.539790678654	1166.739601325621	455.968486866099	390.266071026137	1105.365415659378	395.467877857286	382.153072096394	973.473555682298	333.518823543295	330.909585421961	974.054414346226	205.564010584166	388.655731566245	1204.447363359929	408.659541803306	617.638668044657	1134.587836293604	303.634682387997	679.096025791866	1181.792330614396	209.355555021580	619.695096760806	1053.746735777123	43.115818628473	587.287303087862	1221.652446236714	98.875693534247	630.347050732076	1133.726808057269	37.233975969010	666.296553933903	1341.437894274921	49.621815347477	664.323545736413	796.478349440371	104.084304298050	424.193593632096	864.472872558417	73.872338357589	346.034765422242	961.978023399778	108.414896418502	369.605368216850	1065.598347009751	35.568597549416	344.984319393022	1080.676909748401	1090.689275367070	220.396709544276	1205.964575135985	859.524100427158	198.900646063947	1021.085696503745	1085.657301857500	804.494225354932	1143.944292604510	855.582522766278	816.781748760744	
37	39.246000000000	915.047889949435	990.397745983280	519.442656974299	1091.095129510915	1434.867429173652	359.886868895270	1179.491605333767	1366.691468986885	529.356956146285	1073.055792867919	1432.059539313695	694.642432940666	1064.017692011686	1491.858110748568	515.699311143605	1140.591868104527	943.893953292884	653.610503587591	1141.849950499952	961.374890837165	378.168011001999	1204.916513698139	749.046208239901	622.889815608656	1134.465604568385	632.330293058957	682.017713705158	1219.346967686703	588.133489259729	603.924960196097	1228.438594379205	499.174544415902	610.876242841230	1184.292068470433	739.328709765585	404.389375330052	1102.110274434866	623.941742616376	332.856820661512	1186.186602556876	541.074462929674	394.864733627770	1180.075372552366	456.971727154348	390.492154820886	1116.702369677672	396.574082427254	382.455292264862	982.384051148695	339.587008745245	331.650335175946	979.094684565000	211.240798548477	388.304887547103	1201.575941674766	408.017892990352	618.974201011345	1131.211070349075	303.216198763033	679.989746945903	1177.507267671432	208.872849543156	620.178251421248	1048.415174839842	43.105120228204	587.411865304101	1216.364385872025	98.795043939186	630.522169552205	1128.372931472581	37.183907300485	666.442432965429	1336.133422453545	49.410729347140	664.538201066395	797.613049289744	118.880488895330	423.955843687016	863.549378508556	84.155577161306	345.951433063151	962.967818288765	112.564262829552	369.153895445678	1060.669640171034	34.592736690130	345.246013278087	1075.923120890457	1090.815903497436	223.586429611425	1196.066796558893	857.137717774195	200.163974239089	1026.296146002876	1085.835290879727	809.134830667630	1154.467938635970	858.780244817740	819.809021286197	
38	39.259500000000	914.938871511557	990.542327774199	523.491581418991	1089.632254183104	1434.886938855858	362.392814331368	1179.538908083418	1366.823676810742	531.150245905256	1074.617754739768	1432.285262873295	697.311899090204	1064.075444426842	1491.968327277857	518.485079091956	1141.441898255471	944.145582145991	656.033552894675	1140.853431926293	961.362392646194	380.709113760633	1204.324280597795	748.459810069274	625.518547150924	1132.951144593500	632.072082534691	684.276916038534	1217.455503097736	587.496069518227	606.061976726850	1225.870376104274	498.430297250043	612.551826722140	1188.827630277255	742.047843913695	406.816199764172	1111.482381951541	624.816587238766	334.123538603014	1198.229451009178	543.885130116666	395.983628872425	1193.501673970002	458.683898206313	390.704883058503	1128.384513307625	398.236470008598	382.717112888484	991.899907672149	346.065248346449	332.275500995352	984.845121598969	217.503041716929	388.083465287498	1198.491123182350	407.359087999183	620.339487016024	1127.651854386638	302.750360299619	680.943578642517	1173.079184667189	208.367255279199	620.685273076094	1042.997337029059	43.105377836617	587.528368313633	1211.020285895491	98.638672356996	630.687019331069	1122.929163655707	37.114297698821	666.576537437177	1330.764485422619	49.049827271830	664.731440668724	799.856669975616	134.468451624497	423.850961050190	863.553546759983	95.411191650324	345.951831138119	964.670668391527	117.443142665496	368.904943252551	1056.194400338454	33.627503896307	345.544276493778	1070.929692929859	1090.794969224563	226.715039991274	1186.103095831354	854.842315948748	201.538505873626	1031.624432094044	1086.108479664110	813.809714910795	1164.975217148447	862.148313432247	822.707849128314	
39	39.273000000000	914.632361964143	990.688039650685	527.467651278117	1088.034941103710	1434.780883418925	364.723746809901	1179.551261936215	1366.841095945386	532.712115018341	1076.310641435265	1432.492098147597	699.805122824471	1064.162700150659	1492.031696280464	521.088611885730	1142.114758622189	944.310975706396	658.301112803792	1139.592173042060	961.258536521526	383.099248948922	1203.485076827297	747.842266969540	627.933523172876	1131.332333546738	631.821237441679	686.485665271331	1215.357794029259	586.856791302445	608.079142938870	1223.096549333491	497.688714533668	614.232284612298	1193.153458320699	745.072230209484	409.015155877493	1120.625416894026	626.151692189869	335.152583800365	1209.926471276798	547.304582379086	396.859366554196	1206.758888743598	461.118621655154	390.870452638951	1140.156670057171	400.470142683782	382.934750357183	1001.778587874633	352.830241067283	332.801637531058	991.192760335550	224.193992098986	388.005893454263	1195.243645713015	406.706407492197	621.718022824330	1123.955552047748	302.269472546129	681.968395969435	1168.550305151516	207.862638465024	621.219654093089	1037.528211729845	43.120196522313	587.649605762151	1205.646278230223	98.429246198740	630.843801049311	1117.434317102754	37.037220501093	666.709335437528	1325.363829826095	48.580067765025	664.906274729186	803.197492017576	150.285271031093	423.922073273350	864.579005740444	107.244114297272	346.063338678706	967.122827460244	122.960758318804	368.859955305923	1052.478572760484	32.784818146697	345.826576021874	1065.687015903214	1090.635224260510	229.815206951441	1176.087536354363	852.640852673694	203.018646872144	1037.095099052054	1086.472313674913	818.456526690250	1175.452163336016	865.657648246605	825.443594317799	
40	39.286500000000	914.149919279106	990.848426377144	531.335368978662	1086.350087181618	1434.590498989602	366.878016199528	1179.537463108983	1366.767949905307	534.047295211440	1078.113307883863	1432.701923951397	702.105925963201	1064.303578425378	1492.081135813383	523.490371019578	1142.607633725157	944.422042814366	660.409237812067	1138.086826557865	961.107523991587	385.325018652686	1202.420500633784	747.232374225275	630.109114654773	1129.626811721601	631.601795322121	688.613641366033	1213.084876857034	586.237785388635	609.958994569794	1220.141356017002	496.971143815579	615.891451008254	1197.152273443536	748.399291653764	410.972952108513	1129.285335390580	627.965064706298	335.975025385037	1221.044960386275	551.322490066999	397.459856960504	1219.604341978953	464.264182743192	390.940661487693	1151.780822757475	403.266056547027	383.088506078781	1011.782991783789	359.722603308696	333.247117127111	998.044855633228	231.104392510247	388.063857365549	1191.856631646279	406.083578628229	623.091353750739	1120.136728478988	301.804239194440	683.058345656242	1163.947166463826	207.383809804954	621.782331083726	1032.037349888375	43.150464817993	587.782911948531	1200.262061735942	98.189125446202	630.994193648452	1111.920967640678	36.962796318041	666.847964266123	1319.956619239430	48.046917887273	665.067617986472	807.610608696538	165.664013967916	424.203767923071	866.724770327919	119.143546840968	346.302616568004	970.401155182536	128.942629013620	368.988495676682	1049.905190388784	32.203124688809	346.024271944563	1060.200583828451	1090.369301515712	232.915163944113	1166.029134407665	850.549059588182	204.603791504151	1042.730392592863	1086.930279631278	823.007199422970	1185.890822761872	869.290062498578	827.977006455826	
